# Blender v2.93.1 OBJ File: 'aphmau_itemsblend.blend'
# www.blender.org
mtllib mobile phone.mtl
o Mobile_On_-_Call_Kocka.091
v 0.232525 0.748408 9.013227
v 0.232525 0.830591 9.079967
v 0.222374 0.830591 9.013227
v 0.232525 0.762732 9.046554
v 0.227456 0.762732 9.013227
v 0.227670 0.776645 9.045143
v 0.227456 0.830591 9.071052
v 0.232525 0.802086 9.071052
v 0.227670 0.804352 9.062390
v 0.223730 0.802086 9.013227
v 0.223730 0.830591 9.046554
v 0.225047 0.804352 9.045143
v 0.232525 1.838318 9.079967
v 0.232525 1.958407 9.013227
v 0.222374 1.838318 9.013227
v 0.232525 1.904729 9.071052
v 0.227456 1.838318 9.071052
v 0.227670 1.902463 9.062390
v 0.227456 1.944083 9.013227
v 0.232525 1.944083 9.046554
v 0.227670 1.930170 9.045143
v 0.223730 1.838318 9.046554
v 0.223730 1.904729 9.013227
v 0.225047 1.902463 9.045143
v 0.232525 0.748408 8.401502
v 0.222374 0.830591 8.401502
v 0.232525 0.830591 8.334761
v 0.227456 0.762732 8.401502
v 0.232525 0.762732 8.368175
v 0.227670 0.776645 8.369585
v 0.223730 0.830591 8.368175
v 0.223730 0.802086 8.401502
v 0.225047 0.804352 8.369585
v 0.232525 0.802086 8.343677
v 0.227456 0.830591 8.343677
v 0.227670 0.804352 8.352338
v 0.232525 1.958407 8.401502
v 0.232525 1.838318 8.334761
v 0.222374 1.838318 8.401502
v 0.232525 1.944083 8.368175
v 0.227456 1.944083 8.401502
v 0.227670 1.930170 8.369585
v 0.227456 1.838318 8.343677
v 0.232525 1.904729 8.343677
v 0.227670 1.902463 8.352338
v 0.223730 1.904729 8.401502
v 0.223730 1.838318 8.368175
v 0.225047 1.902463 8.369585
v 0.325563 0.748408 9.013227
v 0.335714 0.830591 9.013227
v 0.325563 0.830591 9.079967
v 0.330632 0.762732 9.013227
v 0.325563 0.762732 9.046554
v 0.330418 0.776645 9.045143
v 0.334358 0.830591 9.046554
v 0.334358 0.802086 9.013227
v 0.333041 0.804352 9.045143
v 0.325563 0.802086 9.071052
v 0.330632 0.830591 9.071052
v 0.330418 0.804352 9.062390
v 0.325563 1.958407 9.013227
v 0.325563 1.838318 9.079967
v 0.335714 1.838318 9.013227
v 0.325563 1.944083 9.046554
v 0.330632 1.944083 9.013227
v 0.330418 1.930170 9.045143
v 0.330632 1.838318 9.071052
v 0.325563 1.904729 9.071052
v 0.330418 1.902463 9.062390
v 0.334358 1.904729 9.013227
v 0.334358 1.838318 9.046554
v 0.333041 1.902463 9.045143
v 0.325563 0.748408 8.401502
v 0.325563 0.830591 8.334761
v 0.335714 0.830591 8.401502
v 0.325563 0.762732 8.368175
v 0.330632 0.762732 8.401502
v 0.330418 0.776645 8.369585
v 0.330632 0.830591 8.343677
v 0.325563 0.802086 8.343677
v 0.330418 0.804352 8.352338
v 0.334358 0.802086 8.401502
v 0.334358 0.830591 8.368175
v 0.333041 0.804352 8.369585
v 0.325563 1.958407 8.401502
v 0.335714 1.838318 8.401502
v 0.325563 1.838318 8.334761
v 0.330632 1.944083 8.401502
v 0.325563 1.944083 8.368175
v 0.330418 1.930170 8.369585
v 0.334358 1.838318 8.368175
v 0.334358 1.904729 8.401502
v 0.333041 1.902463 8.369585
v 0.325563 1.904729 8.343677
v 0.330632 1.838318 8.343677
v 0.330418 1.902463 8.352338
v 0.232314 1.877963 9.077175
v 0.227330 1.876825 9.068346
v 0.222799 1.877963 9.014610
v 0.224141 1.876825 9.047379
v 0.232314 1.877963 8.337553
v 0.227330 1.876825 8.346382
v 0.224141 1.876825 8.367349
v 0.222799 1.877963 8.400118
v 0.325774 1.877963 9.077175
v 0.330758 1.876825 9.068346
v 0.333947 1.876825 9.047379
v 0.335289 1.877963 9.014610
v 0.335289 1.877963 8.400118
v 0.333947 1.876825 8.367349
v 0.330758 1.876825 8.346382
v 0.325774 1.877963 8.337553
vt 0.120973 0.564805
vt 0.120973 0.827409
vt 0.120973 0.827409
vt 0.120973 0.564805
vt 0.299763 0.556284
vt 0.299763 0.821278
vt 0.129891 0.821278
vt 0.129891 0.556284
vt 0.291430 0.856060
vt 0.291430 0.856060
vt 0.137741 0.856060
vt 0.137741 0.856060
vt 0.259375 0.830884
vt 0.259375 0.848953
vt 0.269950 0.848953
vt 0.269950 0.830884
vt 0.308197 0.564805
vt 0.308197 0.827409
vt 0.308197 0.827409
vt 0.308197 0.564805
vt 0.259375 0.828912
vt 0.258799 0.829176
vt 0.258823 0.829431
vt 0.259375 0.829176
vt 0.258375 0.829899
vt 0.258525 0.829941
vt 0.258221 0.830884
vt 0.258375 0.830884
vt 0.258799 0.830884
vt 0.258823 0.829941
vt 0.259375 0.829899
vt 0.258298 0.849445
vt 0.258375 0.849937
vt 0.258525 0.849896
vt 0.258450 0.849424
vt 0.258799 0.850661
vt 0.258823 0.850405
vt 0.259375 0.850924
vt 0.259375 0.850661
vt 0.259375 0.849937
vt 0.258823 0.849896
vt 0.259375 0.849445
vt 0.258811 0.849424
vt 0.269950 0.828912
vt 0.269950 0.829176
vt 0.270502 0.829431
vt 0.270526 0.829176
vt 0.269950 0.829899
vt 0.270502 0.829941
vt 0.270526 0.830884
vt 0.270950 0.830884
vt 0.270800 0.829941
vt 0.271104 0.830884
vt 0.270950 0.829899
vt 0.269950 0.850924
vt 0.270526 0.850661
vt 0.270502 0.850405
vt 0.269950 0.850661
vt 0.270950 0.849937
vt 0.270800 0.849896
vt 0.271027 0.849445
vt 0.270875 0.849424
vt 0.270514 0.849424
vt 0.270502 0.849896
vt 0.269950 0.849445
vt 0.269950 0.849937
vt 0.137741 0.536154
vt 0.137741 0.539981
vt 0.129723 0.543700
vt 0.129368 0.539981
vt 0.137741 0.550498
vt 0.129723 0.551104
vt 0.129716 0.556298
vt 0.121342 0.556298
vt 0.121697 0.542597
vt 0.129716 0.541991
vt 0.129368 0.564805
vt 0.123213 0.564805
vt 0.125389 0.551104
vt 0.123213 0.550498
vt 0.129368 0.852232
vt 0.129723 0.848514
vt 0.137741 0.852232
vt 0.123213 0.841716
vt 0.125389 0.841110
vt 0.122093 0.834562
vt 0.124301 0.834259
vt 0.129545 0.834260
vt 0.129723 0.841110
vt 0.137741 0.834562
vt 0.137741 0.841716
vt 0.291430 0.536154
vt 0.299803 0.539981
vt 0.299448 0.543700
vt 0.291430 0.539981
vt 0.305957 0.550498
vt 0.303781 0.551104
vt 0.305957 0.564805
vt 0.299803 0.564805
vt 0.299448 0.551104
vt 0.300092 0.556298
vt 0.300092 0.541991
vt 0.308111 0.542597
vt 0.308465 0.556298
vt 0.291430 0.550498
vt 0.291430 0.852232
vt 0.299448 0.848514
vt 0.299803 0.852232
vt 0.291430 0.841716
vt 0.299448 0.841110
vt 0.300092 0.834562
vt 0.308288 0.834260
vt 0.308111 0.841110
vt 0.300092 0.841716
vt 0.299626 0.834260
vt 0.304869 0.834260
vt 0.303781 0.841110
vt 0.307077 0.834562
vt 0.305957 0.841716
vt 0.258221 0.848953
vt 0.258375 0.848953
vt 0.258799 0.848953
vt 0.271104 0.848953
vt 0.270950 0.848953
vt 0.270526 0.848953
vt 0.291430 0.536154
vt 0.299803 0.539981
vt 0.305957 0.550498
vt 0.299803 0.852232
vt 0.305957 0.841716
vt 0.307077 0.834562
vt 0.300092 0.827409
vt 0.308465 0.827409
vt 0.299803 0.827409
vt 0.305957 0.827409
vt 0.291430 0.834562
vt 0.137741 0.827409
vt 0.291430 0.827409
vt 0.123213 0.827409
vt 0.129368 0.827409
vt 0.121342 0.827409
vt 0.129716 0.827409
vt 0.137741 0.536154
vt 0.129368 0.539981
vt 0.123213 0.550498
vt 0.129368 0.852232
vt 0.123213 0.841716
vt 0.122093 0.834562
vn 0.0000 0.0000 1.0000
vn 1.0000 0.0000 0.0000
vn 0.0000 1.0000 0.0000
vn -1.0000 0.0000 0.0000
vn 0.0000 0.0000 -1.0000
vn -0.9360 -0.3218 0.1424
vn -0.8696 -0.2609 0.4191
vn -0.8688 -0.1545 0.4705
vn -0.9870 -0.0576 0.1501
vn -0.9978 -0.0498 0.0426
vn -0.9944 -0.0941 0.0477
vn -0.9843 -0.0932 0.1497
vn -0.8751 0.1174 0.4694
vn -0.8696 0.2609 0.4191
vn -0.9360 0.3218 0.1424
vn -0.9944 0.0941 0.0477
vn -0.9984 0.0380 0.0431
vn -0.9875 0.0480 0.1502
vn -0.9843 0.0932 0.1497
vn -0.9360 -0.3218 -0.1424
vn -0.9944 -0.0941 -0.0477
vn -0.9978 -0.0498 -0.0426
vn -0.9870 -0.0576 -0.1501
vn -0.8688 -0.1545 -0.4705
vn -0.8696 -0.2609 -0.4192
vn -0.9843 -0.0932 -0.1497
vn -0.9360 0.3218 -0.1424
vn -0.8696 0.2609 -0.4191
vn -0.8751 0.1174 -0.4694
vn -0.9875 0.0480 -0.1502
vn -0.9984 0.0380 -0.0431
vn -0.9944 0.0941 -0.0477
vn -0.9843 0.0932 -0.1497
vn 0.9360 -0.3218 0.1424
vn 0.9944 -0.0941 0.0477
vn 0.9978 -0.0498 0.0426
vn 0.9870 -0.0576 0.1501
vn 0.8688 -0.1545 0.4705
vn 0.8696 -0.2609 0.4192
vn 0.9843 -0.0932 0.1497
vn 0.9360 0.3218 0.1424
vn 0.8696 0.2609 0.4191
vn 0.8751 0.1174 0.4694
vn 0.9875 0.0480 0.1502
vn 0.9984 0.0380 0.0431
vn 0.9944 0.0941 0.0477
vn 0.9843 0.0932 0.1497
vn 0.9360 -0.3218 -0.1424
vn 0.8696 -0.2609 -0.4191
vn 0.8688 -0.1545 -0.4705
vn 0.9870 -0.0576 -0.1501
vn 0.9978 -0.0498 -0.0426
vn 0.9944 -0.0941 -0.0477
vn 0.9843 -0.0932 -0.1497
vn 0.9360 0.3218 -0.1424
vn 0.9944 0.0942 -0.0477
vn 0.9984 0.0380 -0.0431
vn 0.9875 0.0480 -0.1502
vn 0.8751 0.1174 -0.4694
vn 0.8696 0.2609 -0.4191
vn 0.9843 0.0932 -0.1497
vn -0.9427 -0.3336 0.0000
vn -0.9955 -0.0943 0.0000
vn -0.9989 -0.0475 0.0000
vn -0.8694 0.0000 0.4942
vn -0.9886 0.0000 0.1504
vn -0.9992 0.0000 0.0407
vn -0.9427 0.3336 0.0000
vn -0.9955 0.0943 0.0000
vn -0.9999 0.0107 0.0000
vn -0.8693 0.0000 -0.4942
vn -0.9886 0.0000 -0.1504
vn -0.9992 0.0000 -0.0407
vn 0.0000 -0.9187 -0.3949
vn 0.0000 -0.5285 -0.8490
vn 0.0000 -0.2985 -0.9544
vn 0.0000 0.9187 -0.3949
vn 0.0000 0.5285 -0.8490
vn 0.0000 0.0703 -0.9975
vn 0.9992 0.0000 -0.0407
vn 0.9886 0.0000 -0.1504
vn 0.8693 0.0000 -0.4942
vn 0.9427 -0.3336 0.0000
vn 0.9955 -0.0943 0.0000
vn 0.9989 -0.0475 0.0000
vn 0.9427 0.3336 0.0000
vn 0.9955 0.0943 0.0000
vn 0.9999 0.0107 0.0000
vn 0.8694 0.0000 0.4942
vn 0.9886 0.0000 0.1504
vn 0.9992 0.0000 0.0407
vn 0.0000 -0.9187 0.3949
vn 0.0000 -0.5285 0.8490
vn 0.0000 -0.2985 0.9544
vn 0.0000 0.9187 0.3949
vn 0.0000 0.5285 0.8490
vn 0.0000 0.0703 0.9975
vn 0.0000 -1.0000 0.0000
vn 0.0000 0.2230 0.9748
vn 0.9994 0.0348 0.0000
vn 0.0000 0.2230 -0.9748
vn -0.9994 0.0348 0.0000
vn 0.8705 0.0308 -0.4911
vn 0.9886 0.0073 -0.1504
vn 0.9991 0.0095 -0.0410
vn 0.9991 0.0095 0.0410
vn 0.9886 0.0073 0.1504
vn 0.8705 0.0308 0.4912
vn -0.9991 0.0095 -0.0410
vn -0.9886 0.0073 -0.1504
vn -0.8705 0.0308 -0.4912
vn -0.9886 0.0073 0.1504
vn -0.9991 0.0095 0.0410
vn -0.8705 0.0308 0.4912
usemtl Materiál.194
s off
f 51/1/1 62/2/1 13/3/1 2/4/1
f 75/5/2 86/6/2 63/7/2 50/8/2
f 85/9/3 37/10/3 14/11/3 61/12/3
f 3/13/4 15/14/4 39/15/4 26/16/4
f 27/17/5 38/18/5 87/19/5 74/20/5
f 1/21/6 4/22/6 6/23/6 5/24/6
f 4/22/7 8/25/7 9/26/7 6/23/7
f 2/27/8 7/28/8 9/26/8 8/25/8
f 7/28/9 11/29/9 12/30/9 9/26/9
f 3/13/10 10/31/10 12/30/10 11/29/10
f 10/31/11 5/24/11 6/23/11 12/30/11
f 6/23/12 9/26/12 12/30/12
f 97/32/13 16/33/13 18/34/13 98/35/13
f 16/33/14 20/36/14 21/37/14 18/34/14
f 14/38/15 19/39/15 21/37/15 20/36/15
f 19/39/16 23/40/16 24/41/16 21/37/16
f 99/42/17 100/43/17 24/41/17 23/40/17
f 100/43/18 98/35/18 18/34/18 24/41/18
f 18/34/19 21/37/19 24/41/19
f 25/44/20 28/45/20 30/46/20 29/47/20
f 28/45/21 32/48/21 33/49/21 30/46/21
f 26/16/22 31/50/22 33/49/22 32/48/22
f 31/50/23 35/51/23 36/52/23 33/49/23
f 27/53/24 34/54/24 36/52/24 35/51/24
f 34/54/25 29/47/25 30/46/25 36/52/25
f 30/46/26 33/49/26 36/52/26
f 37/55/27 40/56/27 42/57/27 41/58/27
f 40/56/28 44/59/28 45/60/28 42/57/28
f 101/61/29 102/62/29 45/60/29 44/59/29
f 102/62/30 103/63/30 48/64/30 45/60/30
f 104/65/31 46/66/31 48/64/31 103/63/31
f 46/66/32 41/58/32 42/57/32 48/64/32
f 42/57/33 45/60/33 48/64/33
f 49/67/34 52/68/34 54/69/34 53/70/34
f 52/68/35 56/71/35 57/72/35 54/69/35
f 50/73/36 55/74/36 57/75/36 56/76/36
f 55/77/37 59/78/37 60/79/37 57/72/37
f 51/1/38 58/80/38 60/79/38 59/78/38
f 58/80/39 53/70/39 54/69/39 60/79/39
f 54/69/40 57/72/40 60/79/40
f 61/12/41 64/81/41 66/82/41 65/83/41
f 64/81/42 68/84/42 69/85/42 66/82/42
f 105/86/43 106/87/43 69/85/43 68/84/43
f 106/87/44 107/88/44 72/89/44 69/85/44
f 108/90/45 70/91/45 72/89/45 107/88/45
f 70/91/46 65/83/46 66/82/46 72/89/46
f 66/82/47 69/85/47 72/89/47
f 73/92/48 76/93/48 78/94/48 77/95/48
f 76/93/49 80/96/49 81/97/49 78/94/49
f 74/20/50 79/98/50 81/97/50 80/96/50
f 79/98/51 83/99/51 84/100/51 81/97/51
f 75/101/52 82/102/52 84/103/52 83/104/52
f 82/105/53 77/95/53 78/94/53 84/100/53
f 78/94/54 81/97/54 84/100/54
f 85/9/55 88/106/55 90/107/55 89/108/55
f 88/106/56 92/109/56 93/110/56 90/107/56
f 109/111/57 110/112/57 93/113/57 92/114/57
f 110/115/58 111/116/58 96/117/58 93/110/58
f 112/118/59 94/119/59 96/117/59 111/116/59
f 94/119/60 89/108/60 90/107/60 96/117/60
f 90/107/61 93/110/61 96/117/61
f 25/44/62 1/21/62 5/24/62 28/45/62
f 28/45/63 5/24/63 10/31/63 32/48/63
f 32/48/64 10/31/64 3/13/64 26/16/64
f 2/27/65 13/120/65 17/121/65 7/28/65
f 7/28/66 17/121/66 22/122/66 11/29/66
f 11/29/67 22/122/67 15/14/67 3/13/67
f 14/38/68 37/55/68 41/58/68 19/39/68
f 19/39/69 41/58/69 46/66/69 23/40/69
f 99/42/70 104/65/70 39/15/70 15/14/70
f 38/123/71 27/53/71 35/51/71 43/124/71
f 43/124/72 35/51/72 31/50/72 47/125/72
f 47/125/73 31/50/73 26/16/73 39/15/73
f 73/92/74 25/126/74 29/127/74 76/93/74
f 76/93/75 29/127/75 34/128/75 80/96/75
f 80/96/76 34/128/76 27/17/76 74/20/76
f 37/10/77 85/9/77 89/108/77 40/129/77
f 40/129/78 89/108/78 94/119/78 44/130/78
f 101/131/79 112/118/79 87/19/79 38/18/79
f 86/132/80 75/101/80 83/104/80 91/133/80
f 91/134/81 83/99/81 79/98/81 95/135/81
f 95/135/82 79/98/82 74/20/82 87/19/82
f 49/67/83 73/92/83 77/95/83 52/68/83
f 52/68/84 77/95/84 82/105/84 56/71/84
f 56/76/85 82/102/85 75/101/85 50/73/85
f 85/9/86 61/12/86 65/83/86 88/106/86
f 88/106/87 65/83/87 70/91/87 92/109/87
f 109/136/88 108/90/88 63/137/88 86/138/88
f 62/2/89 51/1/89 59/78/89 67/139/89
f 67/139/90 59/78/90 55/77/90 71/140/90
f 71/141/91 55/74/91 50/73/91 63/142/91
f 1/143/92 49/67/92 53/70/92 4/144/92
f 4/144/93 53/70/93 58/80/93 8/145/93
f 8/145/94 58/80/94 51/1/94 2/4/94
f 61/12/95 14/11/95 20/146/95 64/81/95
f 64/81/96 20/146/96 16/147/96 68/84/96
f 105/86/97 97/148/97 13/3/97 62/2/97
f 25/126/98 73/92/98 49/67/98 1/143/98
f 68/84/99 16/147/99 97/148/99 105/86/99
f 92/109/100 70/91/100 108/90/100 109/136/100
f 44/130/101 94/119/101 112/118/101 101/131/101
f 23/40/102 46/66/102 104/65/102 99/42/102
f 87/19/103 112/118/103 111/116/103 95/135/103
f 91/134/104 95/135/104 111/116/104 110/115/104
f 86/132/105 91/133/105 110/112/105 109/111/105
f 63/137/106 108/90/106 107/88/106 71/140/106
f 67/139/107 71/140/107 107/88/107 106/87/107
f 62/2/108 67/139/108 106/87/108 105/86/108
f 39/15/109 104/65/109 103/63/109 47/125/109
f 43/124/110 47/125/110 103/63/110 102/62/110
f 38/123/111 43/124/111 102/62/111 101/61/111
f 22/122/112 17/121/112 98/35/112 100/43/112
f 15/14/113 22/122/113 100/43/113 99/42/113
f 13/120/114 97/32/114 98/35/114 17/121/114
